<svg width="222" height="17" viewBox="0 0 222 17" fill="none" xmlns="http://www.w3.org/2000/svg">
<path d="M15.4844 1.79688L13.6094 12.2969C13.5677 12.5052 13.474 12.6849 13.3281 12.8359C13.1823 12.987 13.0052 13.0833 12.7969 13.125C12.5833 13.1615 12.3802 13.138 12.1875 13.0547C12 12.9714 11.8516 12.8411 11.7422 12.6641L8.02344 6.55469L4.29688 12.6641C4.20833 12.8151 4.08594 12.9323 3.92969 13.0156C3.77865 13.099 3.61458 13.1406 3.4375 13.1406C3.19271 13.1406 2.97656 13.0625 2.78906 12.9062C2.60156 12.75 2.48698 12.5469 2.44531 12.2969L0.554688 1.79688H2.61719L3.96094 9.19531L7.16406 4.08594C7.2526 3.9349 7.3724 3.81771 7.52344 3.73438C7.67969 3.65104 7.84635 3.60938 8.02344 3.60938C8.20052 3.60938 8.36458 3.65104 8.51562 3.73438C8.66667 3.81771 8.79167 3.9349 8.89062 4.08594L12.0781 9.19531L13.4219 1.79688H15.4844ZM26.1406 13.8125C26.1406 14.1615 26.0964 14.474 26.0078 14.75C25.9193 15.0312 25.8021 15.276 25.6562 15.4844C25.5104 15.6979 25.3411 15.8776 25.1484 16.0234C24.9557 16.1745 24.7526 16.2969 24.5391 16.3906C24.3307 16.4844 24.1198 16.5521 23.9062 16.5938C23.6927 16.6406 23.4896 16.6641 23.2969 16.6641H19.6328V14.6328H23.2969C23.5677 14.6328 23.7708 14.5625 23.9062 14.4219C24.0417 14.2812 24.1094 14.0781 24.1094 13.8125V4.55469H26.1406V13.8125ZM23.2969 13H19.6328C19.3411 13 19.0286 12.9505 18.6953 12.8516C18.3672 12.7526 18.0599 12.5911 17.7734 12.3672C17.487 12.138 17.25 11.8438 17.0625 11.4844C16.875 11.1198 16.7812 10.6745 16.7812 10.1484V4.55469H18.8125V10.1484C18.8125 10.4141 18.8828 10.6172 19.0234 10.7578C19.1641 10.8984 19.3724 10.9688 19.6484 10.9688H23.2969V13ZM37.3906 10.1484C37.3906 10.3411 37.3672 10.5443 37.3203 10.7578C37.2786 10.9714 37.2109 11.1849 37.1172 11.3984C37.0234 11.6068 36.901 11.8073 36.75 12C36.6042 12.1927 36.4245 12.3646 36.2109 12.5156C36.0026 12.6615 35.7604 12.7786 35.4844 12.8672C35.2083 12.9557 34.8958 13 34.5469 13H30.8828C30.6901 13 30.487 12.9792 30.2734 12.9375C30.0599 12.8906 29.8464 12.8203 29.6328 12.7266C29.4245 12.6328 29.224 12.513 29.0312 12.3672C28.8385 12.2161 28.6667 12.0365 28.5156 11.8281C28.3698 11.6146 28.2526 11.3698 28.1641 11.0938C28.0755 10.8125 28.0312 10.4974 28.0312 10.1484V0.984375H30.0625V10.1484C30.0625 10.3984 30.1406 10.599 30.2969 10.75C30.4531 10.8958 30.6484 10.9688 30.8828 10.9688H34.5469C34.8021 10.9688 35 10.8932 35.1406 10.7422C35.2865 10.5911 35.3594 10.3932 35.3594 10.1484V7.39844C35.3594 7.14323 35.2839 6.94531 35.1328 6.80469C34.9818 6.65885 34.7865 6.58594 34.5469 6.58594H30.8828V4.55469H34.5469C34.7396 4.55469 34.9427 4.57812 35.1562 4.625C35.3698 4.66667 35.5807 4.73438 35.7891 4.82812C36.0026 4.92188 36.2057 5.04427 36.3984 5.19531C36.5911 5.34115 36.7604 5.52083 36.9062 5.73438C37.0521 5.94271 37.1693 6.1849 37.2578 6.46094C37.3464 6.73698 37.3906 7.04948 37.3906 7.39844V10.1484ZM41.1875 2.82031H39.1562V0.984375H41.1875V2.82031ZM41.1875 13H39.1562V4.55469H41.1875V13ZM52.2266 7.35156C52.2266 7.63281 52.1771 7.9375 52.0781 8.26562C51.9792 8.58854 51.8177 8.89062 51.5938 9.17188C51.375 9.44792 51.0859 9.67969 50.7266 9.86719C50.3724 10.0547 49.9401 10.1484 49.4297 10.1484H45.7656V8.21875H49.4297C49.7057 8.21875 49.9193 8.13542 50.0703 7.96875C50.2214 7.79688 50.2969 7.58594 50.2969 7.33594C50.2969 7.07031 50.2109 6.86198 50.0391 6.71094C49.8724 6.5599 49.6693 6.48438 49.4297 6.48438H45.7656C45.4896 6.48438 45.276 6.57031 45.125 6.74219C44.974 6.90885 44.8984 7.11719 44.8984 7.36719V10.2031C44.8984 10.474 44.9818 10.6849 45.1484 10.8359C45.3203 10.987 45.5312 11.0625 45.7812 11.0625H49.4297V13H45.7656C45.4844 13 45.1797 12.9505 44.8516 12.8516C44.5286 12.7526 44.2266 12.5938 43.9453 12.375C43.6693 12.151 43.4375 11.862 43.25 11.5078C43.0625 11.1484 42.9688 10.7135 42.9688 10.2031V7.35156C42.9688 7.07031 43.0182 6.76823 43.1172 6.44531C43.2161 6.11719 43.375 5.8151 43.5938 5.53906C43.8177 5.25781 44.1068 5.02344 44.4609 4.83594C44.8203 4.64844 45.2552 4.55469 45.7656 4.55469H49.4297C49.7109 4.55469 50.013 4.60417 50.3359 4.70312C50.6641 4.80208 50.9661 4.96354 51.2422 5.1875C51.5234 5.40625 51.7578 5.69531 51.9453 6.05469C52.1328 6.40885 52.2266 6.84115 52.2266 7.35156ZM60.9844 6.58594H56.4141C56.138 6.58594 55.9297 6.65625 55.7891 6.79688C55.6484 6.93229 55.5781 7.13281 55.5781 7.39844V13H53.5469V7.39844C53.5469 7.04948 53.5911 6.73698 53.6797 6.46094C53.7682 6.1849 53.8854 5.94271 54.0312 5.73438C54.1823 5.52083 54.3542 5.34115 54.5469 5.19531C54.7396 5.04427 54.9401 4.92188 55.1484 4.82812C55.362 4.73438 55.5755 4.66667 55.7891 4.625C56.0078 4.57812 56.2109 4.55469 56.3984 4.55469H60.9844V6.58594ZM70.3281 5.17969C70.4115 5.3724 70.4323 5.56771 70.3906 5.76562C70.3542 5.96354 70.2656 6.13542 70.125 6.28125L65.4297 10.9688H70.3125V13H62.9844C62.776 13 62.5859 12.9427 62.4141 12.8281C62.2474 12.7083 62.1224 12.5573 62.0391 12.375C61.9609 12.1823 61.9401 11.987 61.9766 11.7891C62.0182 11.5859 62.1146 11.4089 62.2656 11.2578L66.9375 6.58594H62.0547V4.55469H69.3984C69.6016 4.55469 69.7865 4.60938 69.9531 4.71875C70.125 4.82812 70.25 4.98177 70.3281 5.17969ZM72.7891 14.4375H71.3594L72.0859 10.5078H74L72.7891 14.4375ZM90.0312 10.1484C90.0312 10.4974 89.987 10.8125 89.8984 11.0938C89.8099 11.3698 89.6927 11.6146 89.5469 11.8281C89.401 12.0365 89.2318 12.2161 89.0391 12.3672C88.8464 12.513 88.6432 12.6328 88.4297 12.7266C88.2214 12.8203 88.0078 12.8906 87.7891 12.9375C87.5755 12.9792 87.3724 13 87.1797 13H83.5156C83.1667 13 82.8542 12.9557 82.5781 12.8672C82.3021 12.7786 82.0573 12.6615 81.8438 12.5156C81.6354 12.3646 81.4557 12.1927 81.3047 12C81.1589 11.8073 81.0391 11.6068 80.9453 11.3984C80.8516 11.1849 80.7812 10.9714 80.7344 10.7578C80.6927 10.5391 80.6719 10.3359 80.6719 10.1484V7.39844C80.6719 6.8776 80.7656 6.4375 80.9531 6.07812C81.1458 5.71354 81.3828 5.41927 81.6641 5.19531C81.9505 4.96615 82.2604 4.80208 82.5938 4.70312C82.9271 4.60417 83.2344 4.55469 83.5156 4.55469H87.1797V6.58594H83.5312C83.2604 6.58594 83.0547 6.65625 82.9141 6.79688C82.7734 6.93229 82.7031 7.13281 82.7031 7.39844V10.1328C82.7031 10.4089 82.7708 10.6172 82.9062 10.7578C83.0469 10.8984 83.25 10.9688 83.5156 10.9688H87.1797C87.4557 10.9688 87.6615 10.8984 87.7969 10.7578C87.9323 10.6172 88 10.4141 88 10.1484V0.984375H90.0312V10.1484ZM101.156 10.1484C101.156 10.4974 101.112 10.8125 101.023 11.0938C100.935 11.3698 100.818 11.6146 100.672 11.8281C100.526 12.0365 100.357 12.2161 100.164 12.3672C99.9714 12.513 99.7682 12.6328 99.5547 12.7266C99.3464 12.8203 99.1328 12.8906 98.9141 12.9375C98.7005 12.9792 98.4974 13 98.3047 13H94.6406C94.3594 13 94.0521 12.9505 93.7188 12.8516C93.3854 12.7526 93.0755 12.5911 92.7891 12.3672C92.5078 12.138 92.2708 11.8438 92.0781 11.4844C91.8906 11.1198 91.7969 10.6745 91.7969 10.1484V7.39844C91.7969 6.8776 91.8906 6.4375 92.0781 6.07812C92.2708 5.71354 92.5078 5.41927 92.7891 5.19531C93.0755 4.96615 93.3854 4.80208 93.7188 4.70312C94.0521 4.60417 94.3594 4.55469 94.6406 4.55469H98.3047C98.8255 4.55469 99.2682 4.64844 99.6328 4.83594C99.9974 5.02344 100.292 5.26042 100.516 5.54688C100.74 5.82812 100.901 6.13542 101 6.46875C101.104 6.80208 101.156 7.11198 101.156 7.39844V10.1484ZM99.125 7.41406C99.125 7.13281 99.0547 6.92448 98.9141 6.78906C98.7734 6.65365 98.5703 6.58594 98.3047 6.58594H94.6562C94.3854 6.58594 94.1797 6.65625 94.0391 6.79688C93.8984 6.93229 93.8281 7.13281 93.8281 7.39844V10.1484C93.8281 10.4141 93.8984 10.6172 94.0391 10.7578C94.1797 10.8984 94.3854 10.9688 94.6562 10.9688H98.3047C98.5807 10.9688 98.7865 10.8984 98.9219 10.7578C99.0573 10.6172 99.125 10.4141 99.125 10.1484V7.41406ZM112.812 13H109.883L105.789 9.04688C105.56 8.83854 105.453 8.57812 105.469 8.26562C105.479 8.11979 105.516 7.98438 105.578 7.85938C105.646 7.72917 105.737 7.61979 105.852 7.53125L109.562 4.53906H112.812L108.031 8.39062L112.812 13ZM104.953 13H102.922V0.984375H104.953V13ZM122.391 10.2031C122.391 10.4792 122.341 10.7786 122.242 11.1016C122.148 11.4193 121.992 11.7188 121.773 12C121.56 12.276 121.279 12.5104 120.93 12.7031C120.586 12.8906 120.167 12.9896 119.672 13C119.406 13.2188 119.198 13.4557 119.047 13.7109C118.901 13.9714 118.828 14.2188 118.828 14.4531C118.828 14.651 118.893 14.7891 119.023 14.8672C119.159 14.9453 119.375 14.9844 119.672 14.9844C119.802 14.9844 119.948 14.9714 120.109 14.9453C120.271 14.9193 120.43 14.8854 120.586 14.8438C120.742 14.8021 120.891 14.7578 121.031 14.7109C121.172 14.6693 121.289 14.6276 121.383 14.5859V16.0391C121.289 16.0651 121.174 16.099 121.039 16.1406C120.909 16.1823 120.755 16.2214 120.578 16.2578C120.401 16.2943 120.198 16.3255 119.969 16.3516C119.74 16.3776 119.482 16.3906 119.195 16.3906C118.914 16.3906 118.648 16.3646 118.398 16.3125C118.154 16.2604 117.94 16.1771 117.758 16.0625C117.576 15.9479 117.43 15.7969 117.32 15.6094C117.216 15.4219 117.164 15.1927 117.164 14.9219C117.164 14.7812 117.18 14.625 117.211 14.4531C117.247 14.2865 117.302 14.1172 117.375 13.9453C117.453 13.7734 117.555 13.6042 117.68 13.4375C117.805 13.276 117.958 13.1302 118.141 13H115.93C115.648 13 115.344 12.9505 115.016 12.8516C114.693 12.7526 114.391 12.5938 114.109 12.375C113.833 12.151 113.602 11.862 113.414 11.5078C113.227 11.1484 113.133 10.7135 113.133 10.2031C113.133 9.92188 113.182 9.61719 113.281 9.28906C113.38 8.96094 113.539 8.65885 113.758 8.38281C113.982 8.10156 114.271 7.86719 114.625 7.67969C114.984 7.49219 115.419 7.39844 115.93 7.39844H119.594V9.33594H115.93C115.654 9.33594 115.44 9.42188 115.289 9.59375C115.138 9.76042 115.062 9.96875 115.062 10.2188C115.062 10.4844 115.148 10.6927 115.32 10.8438C115.497 10.9896 115.706 11.0625 115.945 11.0625H119.594C119.87 11.0625 120.083 10.9792 120.234 10.8125C120.385 10.6458 120.461 10.4375 120.461 10.1875V7.35156C120.461 7.08594 120.378 6.875 120.211 6.71875C120.049 6.5625 119.844 6.48438 119.594 6.48438H115.133V4.55469H119.594C119.875 4.55469 120.177 4.60417 120.5 4.70312C120.828 4.80208 121.13 4.96354 121.406 5.1875C121.688 5.40625 121.922 5.69531 122.109 6.05469C122.297 6.40885 122.391 6.84115 122.391 7.35156V10.2031ZM133.391 10.1484C133.391 10.4974 133.346 10.8125 133.258 11.0938C133.169 11.3698 133.052 11.6146 132.906 11.8281C132.76 12.0365 132.591 12.2161 132.398 12.3672C132.206 12.513 132.003 12.6328 131.789 12.7266C131.581 12.8203 131.367 12.8906 131.148 12.9375C130.935 12.9792 130.732 13 130.539 13H126.875C126.526 13 126.214 12.9557 125.938 12.8672C125.661 12.7786 125.417 12.6615 125.203 12.5156C124.995 12.3646 124.815 12.1927 124.664 12C124.518 11.8073 124.398 11.6068 124.305 11.3984C124.211 11.1849 124.141 10.9714 124.094 10.7578C124.052 10.5391 124.031 10.3359 124.031 10.1484V7.39844C124.031 6.8776 124.125 6.4375 124.312 6.07812C124.505 5.71354 124.742 5.41927 125.023 5.19531C125.31 4.96615 125.62 4.80208 125.953 4.70312C126.286 4.60417 126.594 4.55469 126.875 4.55469H130.539V6.58594H126.891C126.62 6.58594 126.414 6.65625 126.273 6.79688C126.133 6.93229 126.062 7.13281 126.062 7.39844V10.1328C126.062 10.4089 126.13 10.6172 126.266 10.7578C126.406 10.8984 126.609 10.9688 126.875 10.9688H130.539C130.815 10.9688 131.021 10.8984 131.156 10.7578C131.292 10.6172 131.359 10.4141 131.359 10.1484V0.984375H133.391V10.1484ZM148.695 10.1484C148.695 10.4974 148.651 10.8125 148.562 11.0938C148.474 11.3698 148.357 11.6146 148.211 11.8281C148.065 12.0365 147.896 12.2161 147.703 12.3672C147.51 12.513 147.307 12.6328 147.094 12.7266C146.885 12.8203 146.672 12.8906 146.453 12.9375C146.24 12.9792 146.036 13 145.844 13H140.344V10.9688H145.828C146.104 10.9688 146.312 10.8984 146.453 10.7578C146.594 10.6172 146.664 10.4141 146.664 10.1484C146.638 9.60677 146.365 9.33594 145.844 9.33594H142.695C142.247 9.33594 141.867 9.25781 141.555 9.10156C141.242 8.94531 140.987 8.75 140.789 8.51562C140.596 8.28125 140.456 8.02865 140.367 7.75781C140.284 7.48698 140.242 7.23438 140.242 7C140.242 6.54688 140.323 6.16667 140.484 5.85938C140.646 5.54688 140.849 5.29427 141.094 5.10156C141.339 4.90885 141.604 4.77083 141.891 4.6875C142.177 4.59896 142.445 4.55469 142.695 4.55469H147.688V6.58594H142.711C142.607 6.58594 142.523 6.59896 142.461 6.625C142.404 6.64583 142.359 6.67708 142.328 6.71875C142.302 6.75521 142.286 6.79688 142.281 6.84375C142.276 6.88542 142.273 6.92708 142.273 6.96875C142.279 7.05208 142.294 7.11719 142.32 7.16406C142.346 7.21094 142.378 7.24479 142.414 7.26562C142.456 7.28646 142.5 7.29948 142.547 7.30469C142.599 7.30469 142.648 7.30469 142.695 7.30469H145.844C146.365 7.30469 146.807 7.39844 147.172 7.58594C147.536 7.77344 147.831 8.01042 148.055 8.29688C148.279 8.57812 148.44 8.88542 148.539 9.21875C148.643 9.55208 148.695 9.86198 148.695 10.1484ZM160.047 13H157.117L153.023 9.04688C152.794 8.83854 152.688 8.57812 152.703 8.26562C152.714 8.11979 152.75 7.98438 152.812 7.85938C152.88 7.72917 152.971 7.61979 153.086 7.53125L156.797 4.53906H160.047L155.266 8.39062L160.047 13ZM152.188 13H150.156V0.984375H152.188V13ZM168.578 6.58594H164.008C163.732 6.58594 163.523 6.65625 163.383 6.79688C163.242 6.93229 163.172 7.13281 163.172 7.39844V13H161.141V7.39844C161.141 7.04948 161.185 6.73698 161.273 6.46094C161.362 6.1849 161.479 5.94271 161.625 5.73438C161.776 5.52083 161.948 5.34115 162.141 5.19531C162.333 5.04427 162.534 4.92188 162.742 4.82812C162.956 4.73438 163.169 4.66667 163.383 4.625C163.602 4.57812 163.805 4.55469 163.992 4.55469H168.578V6.58594ZM178.977 7.35156C178.977 7.63281 178.927 7.9375 178.828 8.26562C178.729 8.58854 178.568 8.89062 178.344 9.17188C178.125 9.44792 177.836 9.67969 177.477 9.86719C177.122 10.0547 176.69 10.1484 176.18 10.1484H172.516V8.21875H176.18C176.456 8.21875 176.669 8.13542 176.82 7.96875C176.971 7.79688 177.047 7.58594 177.047 7.33594C177.047 7.07031 176.961 6.86198 176.789 6.71094C176.622 6.5599 176.419 6.48438 176.18 6.48438H172.516C172.24 6.48438 172.026 6.57031 171.875 6.74219C171.724 6.90885 171.648 7.11719 171.648 7.36719V10.2031C171.648 10.474 171.732 10.6849 171.898 10.8359C172.07 10.987 172.281 11.0625 172.531 11.0625H176.18V13H175.57C175.305 13.2188 175.096 13.4557 174.945 13.7109C174.799 13.9714 174.727 14.2188 174.727 14.4531C174.727 14.651 174.792 14.7891 174.922 14.8672C175.057 14.9453 175.273 14.9844 175.57 14.9844C175.701 14.9844 175.846 14.9714 176.008 14.9453C176.169 14.9193 176.328 14.8854 176.484 14.8438C176.641 14.8021 176.789 14.7578 176.93 14.7109C177.07 14.6693 177.188 14.6276 177.281 14.5859V16.0391C177.188 16.0651 177.073 16.099 176.938 16.1406C176.807 16.1823 176.654 16.2214 176.477 16.2578C176.299 16.2943 176.096 16.3255 175.867 16.3516C175.638 16.3776 175.38 16.3906 175.094 16.3906C174.812 16.3906 174.547 16.3646 174.297 16.3125C174.052 16.2604 173.839 16.1771 173.656 16.0625C173.474 15.9479 173.328 15.7969 173.219 15.6094C173.115 15.4219 173.062 15.1927 173.062 14.9219C173.062 14.7812 173.078 14.625 173.109 14.4531C173.146 14.2865 173.201 14.1172 173.273 13.9453C173.352 13.7734 173.453 13.6042 173.578 13.4375C173.703 13.276 173.857 13.1302 174.039 13H172.516C172.234 13 171.93 12.9505 171.602 12.8516C171.279 12.7526 170.977 12.5938 170.695 12.375C170.419 12.151 170.188 11.862 170 11.5078C169.812 11.1484 169.719 10.7135 169.719 10.2031V7.35156C169.719 7.07031 169.768 6.76823 169.867 6.44531C169.966 6.11719 170.125 5.8151 170.344 5.53906C170.568 5.25781 170.857 5.02344 171.211 4.83594C171.57 4.64844 172.005 4.55469 172.516 4.55469H176.18C176.461 4.55469 176.763 4.60417 177.086 4.70312C177.414 4.80208 177.716 4.96354 177.992 5.1875C178.273 5.40625 178.508 5.69531 178.695 6.05469C178.883 6.40885 178.977 6.84115 178.977 7.35156ZM188.523 13H183.016C182.734 13 182.427 12.9505 182.094 12.8516C181.76 12.7526 181.451 12.5911 181.164 12.3672C180.883 12.138 180.646 11.8438 180.453 11.4844C180.266 11.1198 180.172 10.6745 180.172 10.1484V7.39844C180.172 7.20573 180.193 7.0026 180.234 6.78906C180.281 6.57552 180.352 6.36458 180.445 6.15625C180.539 5.94271 180.659 5.73958 180.805 5.54688C180.956 5.35417 181.135 5.1849 181.344 5.03906C181.557 4.89323 181.802 4.77604 182.078 4.6875C182.354 4.59896 182.667 4.55469 183.016 4.55469H188.523V6.58594H183.016C182.75 6.58594 182.547 6.65365 182.406 6.78906C182.271 6.92448 182.203 7.13281 182.203 7.41406V10.1484C182.203 10.4141 182.273 10.6172 182.414 10.7578C182.555 10.8984 182.76 10.9688 183.031 10.9688H188.523V13ZM198.859 10.2031C198.859 10.4844 198.81 10.7891 198.711 11.1172C198.612 11.4401 198.451 11.7422 198.227 12.0234C198.008 12.2995 197.719 12.5312 197.359 12.7188C197.005 12.9062 196.573 13 196.062 13H192.398C192.117 13 191.812 12.9505 191.484 12.8516C191.161 12.7526 190.859 12.5938 190.578 12.375C190.302 12.151 190.07 11.862 189.883 11.5078C189.695 11.1484 189.602 10.7135 189.602 10.2031C189.602 9.92188 189.651 9.61719 189.75 9.28906C189.849 8.96094 190.008 8.65885 190.227 8.38281C190.451 8.10156 190.74 7.86719 191.094 7.67969C191.453 7.49219 191.888 7.39844 192.398 7.39844H196.062V9.33594H192.398C192.122 9.33594 191.909 9.42188 191.758 9.59375C191.607 9.76042 191.531 9.96875 191.531 10.2188C191.531 10.4844 191.617 10.6927 191.789 10.8438C191.966 10.9896 192.174 11.0625 192.414 11.0625H196.062C196.339 11.0625 196.552 10.9792 196.703 10.8125C196.854 10.6458 196.93 10.4375 196.93 10.1875V7.35156C196.93 7.08594 196.846 6.875 196.68 6.71875C196.518 6.5625 196.312 6.48438 196.062 6.48438H191.602V4.55469H196.062C196.344 4.55469 196.646 4.60417 196.969 4.70312C197.297 4.80208 197.599 4.96354 197.875 5.1875C198.156 5.40625 198.391 5.69531 198.578 6.05469C198.766 6.40885 198.859 6.84115 198.859 7.35156V10.2031ZM208.758 10.1484C208.758 10.4974 208.714 10.8125 208.625 11.0938C208.536 11.3698 208.419 11.6146 208.273 11.8281C208.128 12.0365 207.958 12.2161 207.766 12.3672C207.573 12.513 207.37 12.6328 207.156 12.7266C206.948 12.8203 206.734 12.8906 206.516 12.9375C206.302 12.9792 206.099 13 205.906 13H200.406V10.9688H205.891C206.167 10.9688 206.375 10.8984 206.516 10.7578C206.656 10.6172 206.727 10.4141 206.727 10.1484C206.701 9.60677 206.427 9.33594 205.906 9.33594H202.758C202.31 9.33594 201.93 9.25781 201.617 9.10156C201.305 8.94531 201.049 8.75 200.852 8.51562C200.659 8.28125 200.518 8.02865 200.43 7.75781C200.346 7.48698 200.305 7.23438 200.305 7C200.305 6.54688 200.385 6.16667 200.547 5.85938C200.708 5.54688 200.911 5.29427 201.156 5.10156C201.401 4.90885 201.667 4.77083 201.953 4.6875C202.24 4.59896 202.508 4.55469 202.758 4.55469H207.75V6.58594H202.773C202.669 6.58594 202.586 6.59896 202.523 6.625C202.466 6.64583 202.422 6.67708 202.391 6.71875C202.365 6.75521 202.349 6.79688 202.344 6.84375C202.339 6.88542 202.336 6.92708 202.336 6.96875C202.341 7.05208 202.357 7.11719 202.383 7.16406C202.409 7.21094 202.44 7.24479 202.477 7.26562C202.518 7.28646 202.562 7.29948 202.609 7.30469C202.661 7.30469 202.711 7.30469 202.758 7.30469H205.906C206.427 7.30469 206.87 7.39844 207.234 7.58594C207.599 7.77344 207.893 8.01042 208.117 8.29688C208.341 8.57812 208.503 8.88542 208.602 9.21875C208.706 9.55208 208.758 9.86198 208.758 10.1484ZM218.188 5.17969C218.271 5.3724 218.292 5.56771 218.25 5.76562C218.214 5.96354 218.125 6.13542 217.984 6.28125L213.289 10.9688H218.172V13H210.844C210.635 13 210.445 12.9427 210.273 12.8281C210.107 12.7083 209.982 12.5573 209.898 12.375C209.82 12.1823 209.799 11.987 209.836 11.7891C209.878 11.5859 209.974 11.4089 210.125 11.2578L214.797 6.58594H209.914V4.55469H217.258C217.461 4.55469 217.646 4.60938 217.812 4.71875C217.984 4.82812 218.109 4.98177 218.188 5.17969ZM221.508 11.9766C221.508 12.1172 221.479 12.25 221.422 12.375C221.37 12.4948 221.297 12.6016 221.203 12.6953C221.115 12.7839 221.008 12.8542 220.883 12.9062C220.763 12.9583 220.635 12.9844 220.5 12.9844C220.359 12.9844 220.227 12.9583 220.102 12.9062C219.982 12.8542 219.875 12.7839 219.781 12.6953C219.693 12.6016 219.622 12.4948 219.57 12.375C219.518 12.25 219.492 12.1172 219.492 11.9766C219.492 11.8411 219.518 11.7135 219.57 11.5938C219.622 11.4688 219.693 11.362 219.781 11.2734C219.875 11.1797 219.982 11.1068 220.102 11.0547C220.227 10.9974 220.359 10.9688 220.5 10.9688C220.635 10.9688 220.763 10.9974 220.883 11.0547C221.008 11.1068 221.115 11.1797 221.203 11.2734C221.297 11.362 221.37 11.4688 221.422 11.5938C221.479 11.7135 221.508 11.8411 221.508 11.9766Z" fill="white"/>
</svg>
