<svg width="222" height="17" viewBox="0 0 222 17" fill="none" xmlns="http://www.w3.org/2000/svg">
<path d="M11.9453 9.70312C11.9453 10.1042 11.8932 10.4661 11.7891 10.7891C11.6901 11.1068 11.5573 11.388 11.3906 11.6328C11.224 11.8776 11.0286 12.0859 10.8047 12.2578C10.5807 12.4297 10.349 12.5703 10.1094 12.6797C9.86979 12.7891 9.625 12.8698 9.375 12.9219C9.13021 12.974 8.89844 13 8.67969 13H0.84375V10.9688H8.67969C9.07031 10.9688 9.3724 10.8542 9.58594 10.625C9.80469 10.3958 9.91406 10.0885 9.91406 9.70312C9.91406 9.51562 9.88542 9.34375 9.82812 9.1875C9.77083 9.03125 9.6875 8.89583 9.57812 8.78125C9.47396 8.66667 9.34375 8.57812 9.1875 8.51562C9.03646 8.45312 8.86719 8.42188 8.67969 8.42188H4.00781C3.67969 8.42188 3.32552 8.36458 2.94531 8.25C2.5651 8.13021 2.21094 7.9401 1.88281 7.67969C1.5599 7.41927 1.28906 7.07812 1.07031 6.65625C0.856771 6.23438 0.75 5.71875 0.75 5.10938C0.75 4.5 0.856771 3.98698 1.07031 3.57031C1.28906 3.14844 1.5599 2.80729 1.88281 2.54688C2.21094 2.28125 2.5651 2.09115 2.94531 1.97656C3.32552 1.85677 3.67969 1.79688 4.00781 1.79688H10.9219V3.82812H4.00781C3.6224 3.82812 3.32031 3.94531 3.10156 4.17969C2.88802 4.41406 2.78125 4.72396 2.78125 5.10938C2.78125 5.5 2.88802 5.8099 3.10156 6.03906C3.32031 6.26302 3.6224 6.375 4.00781 6.375H8.67969H8.69531C8.91406 6.38021 9.14583 6.41146 9.39062 6.46875C9.63542 6.52083 9.8776 6.60417 10.1172 6.71875C10.362 6.83333 10.5938 6.97917 10.8125 7.15625C11.0312 7.32812 11.224 7.53646 11.3906 7.78125C11.5625 8.02604 11.6979 8.30729 11.7969 8.625C11.8958 8.94271 11.9453 9.30208 11.9453 9.70312ZM20.7266 6.58594H17.1797V13H15.125V6.58594H12.4844V4.55469H15.125V1.79688H17.1797V4.55469H20.7266V6.58594ZM31.1172 7.35156C31.1172 7.63281 31.0677 7.9375 30.9688 8.26562C30.8698 8.58854 30.7083 8.89062 30.4844 9.17188C30.2656 9.44792 29.9766 9.67969 29.6172 9.86719C29.263 10.0547 28.8307 10.1484 28.3203 10.1484H24.6562V8.21875H28.3203C28.5964 8.21875 28.8099 8.13542 28.9609 7.96875C29.112 7.79688 29.1875 7.58594 29.1875 7.33594C29.1875 7.07031 29.1016 6.86198 28.9297 6.71094C28.763 6.5599 28.5599 6.48438 28.3203 6.48438H24.6562C24.3802 6.48438 24.1667 6.57031 24.0156 6.74219C23.8646 6.90885 23.7891 7.11719 23.7891 7.36719V10.2031C23.7891 10.474 23.8724 10.6849 24.0391 10.8359C24.2109 10.987 24.4219 11.0625 24.6719 11.0625H28.3203V13H24.6562C24.375 13 24.0703 12.9505 23.7422 12.8516C23.4193 12.7526 23.1172 12.5938 22.8359 12.375C22.5599 12.151 22.3281 11.862 22.1406 11.5078C21.9531 11.1484 21.8594 10.7135 21.8594 10.2031V7.35156C21.8594 7.07031 21.9089 6.76823 22.0078 6.44531C22.1068 6.11719 22.2656 5.8151 22.4844 5.53906C22.7083 5.25781 22.9974 5.02344 23.3516 4.83594C23.7109 4.64844 24.1458 4.55469 24.6562 4.55469H28.3203C28.6016 4.55469 28.9036 4.60417 29.2266 4.70312C29.5547 4.80208 29.8568 4.96354 30.1328 5.1875C30.4141 5.40625 30.6484 5.69531 30.8359 6.05469C31.0234 6.40885 31.1172 6.84115 31.1172 7.35156ZM39.875 6.58594H35.3047C35.0286 6.58594 34.8203 6.65625 34.6797 6.79688C34.5391 6.93229 34.4688 7.13281 34.4688 7.39844V13H32.4375V7.39844C32.4375 7.04948 32.4818 6.73698 32.5703 6.46094C32.6589 6.1849 32.776 5.94271 32.9219 5.73438C33.0729 5.52083 33.2448 5.34115 33.4375 5.19531C33.6302 5.04427 33.8307 4.92188 34.0391 4.82812C34.2526 4.73438 34.4661 4.66667 34.6797 4.625C34.8984 4.57812 35.1016 4.55469 35.2891 4.55469H39.875V6.58594ZM50.4531 11.9766C50.4531 12.1224 50.4271 12.2578 50.375 12.3828C50.3229 12.5078 50.25 12.6172 50.1562 12.7109C50.0677 12.7995 49.9609 12.8698 49.8359 12.9219C49.7161 12.974 49.5859 13 49.4453 13H44.8516C44.6016 13 44.3333 12.9714 44.0469 12.9141C43.7656 12.8568 43.487 12.7656 43.2109 12.6406C42.9349 12.5104 42.6667 12.349 42.4062 12.1562C42.151 11.9583 41.9271 11.7214 41.7344 11.4453C41.5417 11.1641 41.3854 10.8411 41.2656 10.4766C41.151 10.112 41.0938 9.70052 41.0938 9.24219V4.55469H43.125V9.24219C43.125 9.50781 43.1693 9.7474 43.2578 9.96094C43.3516 10.1693 43.4766 10.349 43.6328 10.5C43.7891 10.651 43.9714 10.7682 44.1797 10.8516C44.3932 10.9297 44.6224 10.9688 44.8672 10.9688H48.4219V4.55469H50.4531V11.9766ZM54.4219 2.82031H52.3906V0.984375H54.4219V2.82031ZM54.4219 13.8125C54.4219 14.1615 54.3776 14.474 54.2891 14.75C54.2005 15.0312 54.0833 15.276 53.9375 15.4844C53.7917 15.6979 53.6224 15.8776 53.4297 16.0234C53.237 16.1745 53.0339 16.2969 52.8203 16.3906C52.612 16.4844 52.401 16.5521 52.1875 16.5938C51.974 16.6406 51.7708 16.6641 51.5781 16.6641H47.9141V14.6328H51.5781C51.849 14.6328 52.0521 14.5625 52.1875 14.4219C52.3229 14.2812 52.3906 14.0781 52.3906 13.8125V4.55469H54.4219V13.8125ZM63.6406 2.82031H61.6094V0.984375H63.6406V2.82031ZM63.6406 13H61.6094V4.55469H63.6406V13ZM80.0312 11.9766C80.0312 12.1224 80.0052 12.2578 79.9531 12.3828C79.901 12.5078 79.8281 12.6172 79.7344 12.7109C79.6458 12.7995 79.5391 12.8698 79.4141 12.9219C79.2943 12.974 79.1641 13 79.0234 13H74.4297C74.1797 13 73.9115 12.9714 73.625 12.9141C73.3438 12.8568 73.0651 12.7656 72.7891 12.6406C72.513 12.5104 72.2448 12.349 71.9844 12.1562C71.7292 11.9583 71.5052 11.7214 71.3125 11.4453C71.1198 11.1641 70.9635 10.8411 70.8438 10.4766C70.7292 10.112 70.6719 9.70052 70.6719 9.24219V4.55469H72.7031V9.24219C72.7031 9.50781 72.7474 9.7474 72.8359 9.96094C72.9297 10.1693 73.0547 10.349 73.2109 10.5C73.3672 10.651 73.5495 10.7682 73.7578 10.8516C73.9714 10.9297 74.2005 10.9688 74.4453 10.9688H78V4.55469H80.0312V11.9766ZM91.2969 13H89.2656V8.3125C89.2656 8.04688 89.2188 7.8099 89.125 7.60156C89.0365 7.38802 88.9141 7.20573 88.7578 7.05469C88.6016 6.90365 88.4167 6.78906 88.2031 6.71094C87.9948 6.6276 87.7682 6.58594 87.5234 6.58594H83.9688V13H81.9375V5.5625C81.9375 5.42188 81.9635 5.29167 82.0156 5.17188C82.0677 5.04688 82.1406 4.9401 82.2344 4.85156C82.3281 4.75781 82.4375 4.6849 82.5625 4.63281C82.6875 4.58073 82.8203 4.55469 82.9609 4.55469H87.5391C87.7943 4.55469 88.0625 4.58333 88.3438 4.64062C88.6302 4.69792 88.9115 4.79167 89.1875 4.92188C89.4688 5.04688 89.7344 5.20833 89.9844 5.40625C90.2396 5.59896 90.4635 5.83594 90.6562 6.11719C90.8542 6.39323 91.0104 6.71354 91.125 7.07812C91.2396 7.44271 91.2969 7.85417 91.2969 8.3125V13ZM95.1406 2.82031H93.1094V0.984375H95.1406V2.82031ZM95.1406 13H93.1094V4.55469H95.1406V13ZM107.016 13H104.086L99.9922 9.04688C99.763 8.83854 99.6562 8.57812 99.6719 8.26562C99.6823 8.11979 99.7188 7.98438 99.7812 7.85938C99.849 7.72917 99.9401 7.61979 100.055 7.53125L103.766 4.53906H107.016L102.234 8.39062L107.016 13ZM99.1562 13H97.125V0.984375H99.1562V13ZM116.594 10.2031C116.594 10.4844 116.544 10.7891 116.445 11.1172C116.346 11.4401 116.185 11.7422 115.961 12.0234C115.742 12.2995 115.453 12.5312 115.094 12.7188C114.74 12.9062 114.307 13 113.797 13H110.133C109.852 13 109.547 12.9505 109.219 12.8516C108.896 12.7526 108.594 12.5938 108.312 12.375C108.036 12.151 107.805 11.862 107.617 11.5078C107.43 11.1484 107.336 10.7135 107.336 10.2031C107.336 9.92188 107.385 9.61719 107.484 9.28906C107.583 8.96094 107.742 8.65885 107.961 8.38281C108.185 8.10156 108.474 7.86719 108.828 7.67969C109.188 7.49219 109.622 7.39844 110.133 7.39844H113.797V9.33594H110.133C109.857 9.33594 109.643 9.42188 109.492 9.59375C109.341 9.76042 109.266 9.96875 109.266 10.2188C109.266 10.4844 109.352 10.6927 109.523 10.8438C109.701 10.9896 109.909 11.0625 110.148 11.0625H113.797C114.073 11.0625 114.286 10.9792 114.438 10.8125C114.589 10.6458 114.664 10.4375 114.664 10.1875V7.35156C114.664 7.08594 114.581 6.875 114.414 6.71875C114.253 6.5625 114.047 6.48438 113.797 6.48438H109.336V4.55469H113.797C114.078 4.55469 114.38 4.60417 114.703 4.70312C115.031 4.80208 115.333 4.96354 115.609 5.1875C115.891 5.40625 116.125 5.69531 116.312 6.05469C116.5 6.40885 116.594 6.84115 116.594 7.35156V10.2031ZM120.391 2.82031H118.359V0.984375H120.391V2.82031ZM120.391 13.8125C120.391 14.1615 120.346 14.474 120.258 14.75C120.169 15.0312 120.052 15.276 119.906 15.4844C119.76 15.6979 119.591 15.8776 119.398 16.0234C119.206 16.1745 119.003 16.2969 118.789 16.3906C118.581 16.4844 118.37 16.5521 118.156 16.5938C117.943 16.6406 117.74 16.6641 117.547 16.6641H113.883V14.6328H117.547C117.818 14.6328 118.021 14.5625 118.156 14.4219C118.292 14.2812 118.359 14.0781 118.359 13.8125V4.55469H120.391V13.8125ZM136.859 10.1484C136.859 10.4974 136.815 10.8125 136.727 11.0938C136.638 11.3698 136.521 11.6146 136.375 11.8281C136.229 12.0365 136.06 12.2161 135.867 12.3672C135.674 12.513 135.471 12.6328 135.258 12.7266C135.049 12.8203 134.839 12.8906 134.625 12.9375C134.411 12.9792 134.208 13 134.016 13H130.352V10.9688H134.016C134.286 10.9688 134.49 10.8984 134.625 10.7578C134.76 10.6172 134.828 10.4141 134.828 10.1484V7.41406C134.828 7.13281 134.758 6.92448 134.617 6.78906C134.482 6.65365 134.281 6.58594 134.016 6.58594H130.367C130.091 6.58594 129.883 6.65625 129.742 6.79688C129.602 6.93229 129.531 7.13281 129.531 7.39844V15.6406H127.5V7.39844C127.5 7.04948 127.544 6.73698 127.633 6.46094C127.721 6.1849 127.839 5.94271 127.984 5.73438C128.135 5.52083 128.307 5.34115 128.5 5.19531C128.693 5.04427 128.893 4.92188 129.102 4.82812C129.315 4.73438 129.529 4.66667 129.742 4.625C129.961 4.57812 130.164 4.55469 130.352 4.55469H134.016C134.365 4.55469 134.677 4.59896 134.953 4.6875C135.229 4.77604 135.471 4.89323 135.68 5.03906C135.893 5.1849 136.073 5.35417 136.219 5.54688C136.37 5.73958 136.492 5.94271 136.586 6.15625C136.68 6.36458 136.747 6.57552 136.789 6.78906C136.836 7.0026 136.859 7.20573 136.859 7.39844V10.1484ZM145.984 6.58594H141.414C141.138 6.58594 140.93 6.65625 140.789 6.79688C140.648 6.93229 140.578 7.13281 140.578 7.39844V13H138.547V7.39844C138.547 7.04948 138.591 6.73698 138.68 6.46094C138.768 6.1849 138.885 5.94271 139.031 5.73438C139.182 5.52083 139.354 5.34115 139.547 5.19531C139.74 5.04427 139.94 4.92188 140.148 4.82812C140.362 4.73438 140.576 4.66667 140.789 4.625C141.008 4.57812 141.211 4.55469 141.398 4.55469H145.984V6.58594ZM155.328 5.17969C155.411 5.3724 155.432 5.56771 155.391 5.76562C155.354 5.96354 155.266 6.13542 155.125 6.28125L150.43 10.9688H155.312V13H147.984C147.776 13 147.586 12.9427 147.414 12.8281C147.247 12.7083 147.122 12.5573 147.039 12.375C146.961 12.1823 146.94 11.987 146.977 11.7891C147.018 11.5859 147.115 11.4089 147.266 11.2578L151.938 6.58594H147.055V4.55469H154.398C154.602 4.55469 154.786 4.60938 154.953 4.71875C155.125 4.82812 155.25 4.98177 155.328 5.17969ZM166.008 7.35156C166.008 7.63281 165.958 7.9375 165.859 8.26562C165.76 8.58854 165.599 8.89062 165.375 9.17188C165.156 9.44792 164.867 9.67969 164.508 9.86719C164.154 10.0547 163.721 10.1484 163.211 10.1484H159.547V8.21875H163.211C163.487 8.21875 163.701 8.13542 163.852 7.96875C164.003 7.79688 164.078 7.58594 164.078 7.33594C164.078 7.07031 163.992 6.86198 163.82 6.71094C163.654 6.5599 163.451 6.48438 163.211 6.48438H159.547C159.271 6.48438 159.057 6.57031 158.906 6.74219C158.755 6.90885 158.68 7.11719 158.68 7.36719V10.2031C158.68 10.474 158.763 10.6849 158.93 10.8359C159.102 10.987 159.312 11.0625 159.562 11.0625H163.211V13H159.547C159.266 13 158.961 12.9505 158.633 12.8516C158.31 12.7526 158.008 12.5938 157.727 12.375C157.451 12.151 157.219 11.862 157.031 11.5078C156.844 11.1484 156.75 10.7135 156.75 10.2031V7.35156C156.75 7.07031 156.799 6.76823 156.898 6.44531C156.997 6.11719 157.156 5.8151 157.375 5.53906C157.599 5.25781 157.888 5.02344 158.242 4.83594C158.602 4.64844 159.036 4.55469 159.547 4.55469H163.211C163.492 4.55469 163.794 4.60417 164.117 4.70312C164.445 4.80208 164.747 4.96354 165.023 5.1875C165.305 5.40625 165.539 5.69531 165.727 6.05469C165.914 6.40885 166.008 6.84115 166.008 7.35156ZM175.539 10.1484C175.539 10.4974 175.495 10.8125 175.406 11.0938C175.318 11.3698 175.201 11.6146 175.055 11.8281C174.909 12.0365 174.74 12.2161 174.547 12.3672C174.354 12.513 174.151 12.6328 173.938 12.7266C173.729 12.8203 173.516 12.8906 173.297 12.9375C173.083 12.9792 172.88 13 172.688 13H167.188V10.9688H172.672C172.948 10.9688 173.156 10.8984 173.297 10.7578C173.438 10.6172 173.508 10.4141 173.508 10.1484C173.482 9.60677 173.208 9.33594 172.688 9.33594H169.539C169.091 9.33594 168.711 9.25781 168.398 9.10156C168.086 8.94531 167.831 8.75 167.633 8.51562C167.44 8.28125 167.299 8.02865 167.211 7.75781C167.128 7.48698 167.086 7.23438 167.086 7C167.086 6.54688 167.167 6.16667 167.328 5.85938C167.49 5.54688 167.693 5.29427 167.938 5.10156C168.182 4.90885 168.448 4.77083 168.734 4.6875C169.021 4.59896 169.289 4.55469 169.539 4.55469H174.531V6.58594H169.555C169.451 6.58594 169.367 6.59896 169.305 6.625C169.247 6.64583 169.203 6.67708 169.172 6.71875C169.146 6.75521 169.13 6.79688 169.125 6.84375C169.12 6.88542 169.117 6.92708 169.117 6.96875C169.122 7.05208 169.138 7.11719 169.164 7.16406C169.19 7.21094 169.221 7.24479 169.258 7.26562C169.299 7.28646 169.344 7.29948 169.391 7.30469C169.443 7.30469 169.492 7.30469 169.539 7.30469H172.688C173.208 7.30469 173.651 7.39844 174.016 7.58594C174.38 7.77344 174.674 8.01042 174.898 8.29688C175.122 8.57812 175.284 8.88542 175.383 9.21875C175.487 9.55208 175.539 9.86198 175.539 10.1484ZM184.969 5.17969C185.052 5.3724 185.073 5.56771 185.031 5.76562C184.995 5.96354 184.906 6.13542 184.766 6.28125L180.07 10.9688H184.953V13H177.625C177.417 13 177.227 12.9427 177.055 12.8281C176.888 12.7083 176.763 12.5573 176.68 12.375C176.602 12.1823 176.581 11.987 176.617 11.7891C176.659 11.5859 176.755 11.4089 176.906 11.2578L181.578 6.58594H176.695V4.55469H184.039C184.242 4.55469 184.427 4.60938 184.594 4.71875C184.766 4.82812 184.891 4.98177 184.969 5.17969ZM196.516 13H193.586L189.492 9.04688C189.263 8.83854 189.156 8.57812 189.172 8.26562C189.182 8.11979 189.219 7.98438 189.281 7.85938C189.349 7.72917 189.44 7.61979 189.555 7.53125L193.266 4.53906H196.516L191.734 8.39062L196.516 13ZM188.656 13H186.625V0.984375H188.656V13ZM206.562 10.1484C206.562 10.4974 206.518 10.8125 206.43 11.0938C206.341 11.3698 206.224 11.6146 206.078 11.8281C205.932 12.0365 205.763 12.2161 205.57 12.3672C205.378 12.513 205.174 12.6328 204.961 12.7266C204.753 12.8203 204.539 12.8906 204.32 12.9375C204.107 12.9792 203.904 13 203.711 13H200.047C199.766 13 199.458 12.9505 199.125 12.8516C198.792 12.7526 198.482 12.5911 198.195 12.3672C197.914 12.138 197.677 11.8438 197.484 11.4844C197.297 11.1198 197.203 10.6745 197.203 10.1484V7.39844C197.203 6.8776 197.297 6.4375 197.484 6.07812C197.677 5.71354 197.914 5.41927 198.195 5.19531C198.482 4.96615 198.792 4.80208 199.125 4.70312C199.458 4.60417 199.766 4.55469 200.047 4.55469H203.711C204.232 4.55469 204.674 4.64844 205.039 4.83594C205.404 5.02344 205.698 5.26042 205.922 5.54688C206.146 5.82812 206.307 6.13542 206.406 6.46875C206.51 6.80208 206.562 7.11198 206.562 7.39844V10.1484ZM204.531 7.41406C204.531 7.13281 204.461 6.92448 204.32 6.78906C204.18 6.65365 203.977 6.58594 203.711 6.58594H200.062C199.792 6.58594 199.586 6.65625 199.445 6.79688C199.305 6.93229 199.234 7.13281 199.234 7.39844V10.1484C199.234 10.4141 199.305 10.6172 199.445 10.7578C199.586 10.8984 199.792 10.9688 200.062 10.9688H203.711C203.987 10.9688 204.193 10.8984 204.328 10.7578C204.464 10.6172 204.531 10.4141 204.531 10.1484V7.41406ZM206.031 2.00781L201.953 3.46875L201.414 2.29688L205.172 0.109375L206.031 2.00781ZM217.562 10.1484C217.562 10.4974 217.518 10.8125 217.43 11.0938C217.341 11.3698 217.224 11.6146 217.078 11.8281C216.932 12.0365 216.763 12.2161 216.57 12.3672C216.378 12.513 216.174 12.6328 215.961 12.7266C215.753 12.8203 215.539 12.8906 215.32 12.9375C215.107 12.9792 214.904 13 214.711 13H211.047C210.698 13 210.385 12.9557 210.109 12.8672C209.833 12.7786 209.589 12.6615 209.375 12.5156C209.167 12.3646 208.987 12.1927 208.836 12C208.69 11.8073 208.57 11.6068 208.477 11.3984C208.383 11.1849 208.312 10.9714 208.266 10.7578C208.224 10.5391 208.203 10.3359 208.203 10.1484V7.39844C208.203 6.8776 208.297 6.4375 208.484 6.07812C208.677 5.71354 208.914 5.41927 209.195 5.19531C209.482 4.96615 209.792 4.80208 210.125 4.70312C210.458 4.60417 210.766 4.55469 211.047 4.55469H214.711V6.58594H211.062C210.792 6.58594 210.586 6.65625 210.445 6.79688C210.305 6.93229 210.234 7.13281 210.234 7.39844V10.1328C210.234 10.4089 210.302 10.6172 210.438 10.7578C210.578 10.8984 210.781 10.9688 211.047 10.9688H214.711C214.987 10.9688 215.193 10.8984 215.328 10.7578C215.464 10.6172 215.531 10.4141 215.531 10.1484V0.984375H217.562V10.1484ZM221.195 11.9766C221.195 12.1172 221.167 12.25 221.109 12.375C221.057 12.4948 220.984 12.6016 220.891 12.6953C220.802 12.7839 220.695 12.8542 220.57 12.9062C220.451 12.9583 220.323 12.9844 220.188 12.9844C220.047 12.9844 219.914 12.9583 219.789 12.9062C219.669 12.8542 219.562 12.7839 219.469 12.6953C219.38 12.6016 219.31 12.4948 219.258 12.375C219.206 12.25 219.18 12.1172 219.18 11.9766C219.18 11.8411 219.206 11.7135 219.258 11.5938C219.31 11.4688 219.38 11.362 219.469 11.2734C219.562 11.1797 219.669 11.1068 219.789 11.0547C219.914 10.9974 220.047 10.9688 220.188 10.9688C220.323 10.9688 220.451 10.9974 220.57 11.0547C220.695 11.1068 220.802 11.1797 220.891 11.2734C220.984 11.362 221.057 11.4688 221.109 11.5938C221.167 11.7135 221.195 11.8411 221.195 11.9766Z" fill="white"/>
</svg>
